    <svg xmlns="http://www.w3.org/2000/svg" viewBox="0 0 140.79 140.79"><defs><style>.cls-1{fill:#fff;}.cls-2{fill:#303030;}.cls-3{fill:#00bc4a;}</style></defs><title>Icon-1</title><g id="Capa_2" data-name="Capa 2"><g id="Capa_1-2" data-name="Capa 1"><rect class="cls-1" width="140.79" height="140.79"/><path class="cls-2" d="M86.28,70.82l.16-.15A5.18,5.18,0,0,0,88,67.24a5.09,5.09,0,0,0-1.31-3.72A5.22,5.22,0,0,0,81,62.12a5.15,5.15,0,0,0-1.67,1L66.27,75l0,0a5.06,5.06,0,0,0-1.39,3.47,5.21,5.21,0,0,0,1.23,3.39c.09.11.18.22.28.32l.06.05L71,86.4l8.27,7.53a5,5,0,0,0,1.67,1,5,5,0,0,0,1.81.33,5.28,5.28,0,0,0,3.9-1.73A5.07,5.07,0,0,0,88,89.83a5.21,5.21,0,0,0-1.69-3.58l-.91-.82v0l-3.3-3L80.8,81.26l-3-2.73,4.25-3.87Z"/><path class="cls-3" d="M58,84.6a5.21,5.21,0,0,0-5.14,5.14V90A5.2,5.2,0,0,0,63.2,90v-.3A5.2,5.2,0,0,0,58,84.6Z"/><path class="cls-2" d="M58,45.52a5.17,5.17,0,0,0-5.14,5.19V66.65a5.2,5.2,0,0,0,10.39,0V50.71A5.22,5.22,0,0,0,58,45.52Z"/></g></g></svg>